<?xml version="1.0" encoding="utf-8"?>
<svg viewBox="0 0 774 774" xmlns="http://www.w3.org/2000/svg">
  <g transform="matrix(0.9999999999999999, 0, 0, 0.9999999999999999, 20.73615646362302, -39.168296813964844)">
    <g transform="matrix(0.1, 0, 0, -0.1, -2.31728, 774.295471)" fill="#000000" stroke="none">
      <path d="M 2698 5918 C 2682.81 5909.986 2662 5889.291 2638 5871 C 2617.002 5854.997 2585.019 5837.627 2562 5820 C 2541.758 5804.499 2512.56 5785.308 2497 5774 C 2461.834 5748.444 2377.837 5683.109 2353 5664 C 2330.015 5646.316 2294 5622 2268 5605 C 2227 5580 2221 5571 2218 5535 C 2214 5501 2259 5243 2276 5200 C 2280 5192 2284 5174 2285 5160 C 2309 4970 2324 4581 2330 4561 C 2336 4537 2334 4443 2336 4415 C 2341 4340 2363.833 4263.986 2372 4243 C 2407.47 4133.786 2412 4149.843 2430 4095 C 2431.818 4089.46 2451 4065 2464 4036 C 2503 3950 2646 3814 2728 3786 C 2749 3778 2788 3762 2816 3750 C 2875 3722 2909 3713 3020 3693 C 3117 3676 3281 3680 3305 3700 C 3327 3718 3320.925 3739.734 3301 3750 C 3291.568 3754.86 3258.624 3765.478 3249 3770 C 3239.949 3774.252 3176.043 3823.086 3167 3830 C 3157.957 3836.914 3075.94 3906.291 3055 3926 C 2998.623 3979.063 2955.109 4022.43 2950 4030 C 2947.203 4034.144 2873.228 4151.094 2863.047 4165.376 C 2852.866 4179.658 2823.272 4239.371 2819.715 4253.593 C 2816.775 4262.861 2804.686 4348.073 2804.036 4351.288 C 2787.943 4430.937 2775.074 5378.023 2773.344 5414.506 C 2768.371 5519.386 2765.342 5717.835 2765.342 5717.835 C 2765.342 5717.835 2763 5866 2761 5919 C 2734.906 5918.217 2712.852 5925.836 2698 5918 Z" style="fill: rgb(79, 122, 92);"/>
      <path d="M 3391.793 5759.641 C 3378.793 5756.641 3375.793 5749.641 3380.793 5738.641 C 3383.793 5728.641 3389.793 5710.641 3391.793 5696.641 C 3394.793 5682.641 3421.479 5660.984 3432.479 5637.984 C 3444.534 5613.984 3510.698 5492.354 3513.067 5459.354 C 3516.67 5409.154 3520.989 5391.501 3515.252 5324.74 C 3513.277 5301.756 3508.328 5291.357 3503.332 5269.85 C 3499.617 5253.856 3499.268 5238.637 3497.497 5229.128 C 3494.101 5210.897 3478.868 5189.729 3473.308 5174.255 C 3462.345 5137.149 3463.969 5143.124 3438.426 5085.259 C 3423.108 5057.754 3416.099 5037.069 3395.793 4998.641 C 3359.53 4930.015 3357.904 4944.935 3378.793 4907.641 C 3385.368 4895.903 3390.382 4886.185 3394.793 4878.641 C 3399.204 4871.097 3414.465 4843.375 3438.793 4813.641 C 3492.793 4747.641 3539.553 4614.538 3575.793 4525.641 C 3590.196 4490.311 3581.993 4287.32 3577.167 4229.641 C 3574.999 4203.728 3569.206 4185.29 3553.793 4156.641 C 3551.039 4151.522 3501.001 4039.943 3486.23 4021.829 C 3470.841 4002.957 3457.876 3979.099 3448.876 3977.099 C 3425.418 3929.433 3401.648 3936.183 3454.793 3926.641 C 3490.131 3920.297 3678.292 3948.509 3724.222 3962.809 C 3750.141 3970.879 3839.93 4036.159 3849.223 4039.201 C 3873.869 4047.269 4021.155 4311.046 3999.032 4476.942 C 3973.393 4669.2 3786.284 4849.468 3749.793 4888.641 C 3683.947 4959.326 3666.988 4948.301 3705.793 4998.641 C 3721.132 5018.539 3747.849 5053.181 3759.793 5064.641 C 3776.929 5081.084 3789.134 5102.843 3804.793 5121.641 C 3813.79 5137.648 3869.761 5225.652 3866.761 5238.652 C 3872.336 5240.162 3872.113 5264.45 3878.106 5276.944 C 3884.099 5289.438 3883.994 5379.877 3880.221 5407.712 C 3876.562 5434.713 3856.98 5568.698 3782.115 5627.391 C 3781.127 5628.166 3726.68 5683.015 3682.793 5701.641 C 3654.436 5713.676 3634.9 5725.14 3610.472 5732.462 C 3571.023 5744.286 3501.793 5766.641 3457.793 5765.641 C 3430.793 5764.641 3401.793 5762.641 3391.793 5759.641 Z" style="fill: rgb(79, 122, 92);"/>
      <path d="M 2954.548 5469.037 L 2834.548 5464.037 L 2922.548 5377.037 C 2970.548 5328.037 3011.689 5295.877 3019.201 5289.45 C 3026.713 5283.023 3055.548 5258.495 3092.548 5227.037 C 3234.871 5106.032 3234.279 5092.027 3237.279 5174.027 C 3238.883 5212.42 3239.203 5232.663 3240.236 5250.779 C 3239.962 5270.152 3241.808 5313.902 3241.275 5329.037 C 3240.979 5337.451 3247.548 5455.037 3238.548 5462.037 C 3231.052 5469.701 3085.923 5464.454 2954.548 5469.037 Z" style="fill: rgb(79, 122, 92);"/>
      <g transform="matrix(0.679795, 0, 0, 0.679795, 1039.098877, 1418.440552)" style="">
        <path d="M 4644 3380 C 4623 3372 4623 3367 4625 3170 C 4627 3051 4632 2964 4638 2958 C 4660 2936 4684 2954 4693 3000 C 4701 3045 4694 3349 4683 3376 C 4677 3392 4674 3392 4644 3380 Z" style="fill: rgb(79, 122, 92);"/>
        <path d="M 5026 3374 C 5023 3365 5020 3336 5020 3309 L 5020 3259 L 4947 3266 C 4887 3271 4871 3269 4858 3256 C 4849 3247 4837 3240 4832 3240 C 4822 3240 4806 3209 4790 3159 C 4769 3089 4803 2992 4860 2962 C 4877 2954 4900 2951 4930 2956 C 4955 2959 5001 2962 5032 2961 L 5089 2959 L 5095 2993 C 5099 3011 5099 3087 5096 3161 C 5093 3235 5091 3316 5091 3343 C 5090 3388 5089 3390 5061 3390 C 5044 3390 5030 3384 5026 3374 Z M 4985 3198 C 5004 3181 5013 3160 5019 3120 C 5028 3067 5027 3065 4994 3032 C 4966 3004 4955 2999 4932 3004 C 4885 3016 4860 3054 4860 3116 C 4860 3161 4864 3175 4885 3195 C 4915 3226 4951 3227 4985 3198 Z" style="fill: rgb(79, 122, 92);"/>
        <path d="M 3638 3373 C 3601 3370 3590 3365 3590 3352 C 3587 3253 3592 2935 3596 2931 C 3598 2928 3657 2927 3727 2929 C 3881 2932 3909 2942 3940 3007 C 3964 3059 3961 3085 3927 3127 C 3892 3168 3890 3184 3911 3216 C 3937 3255 3935 3287 3905 3326 C 3870 3372 3792 3385 3638 3373 Z M 3817 3304 C 3847 3296 3866 3249 3849 3222 C 3835 3199 3744 3185 3694 3199 C 3669 3205 3665 3212 3662 3244 C 3657 3297 3672 3310 3739 3310 C 3770 3310 3805 3307 3817 3304 Z M 3858 3094 C 3885 3064 3886 3049 3863 3021 C 3841 2996 3731 2982 3687 2999 C 3660 3009 3659 3013 3664 3056 C 3670 3110 3675 3117 3715 3123 C 3775 3132 3834 3120 3858 3094 Z" style="fill: rgb(79, 122, 92);"/>
        <path d="M1133 3323 c-15 -5 -17 -49 -4 -58 5 -3 31 -6 57 -7 34 -2 50 -8 59 -23 8 -12 16 -77 20 -165 7 -157 14 -183 48 -178 22 3 22 6 22 173 0 94 4 176 8 183 5 6 20 12 34 12 67 0 123 46 77 64 -19 7 -303 7 -321 -1z" style="fill: rgb(79, 122, 92);"/>
        <path d="M 5890 3290 C 5842 3282 5833 3275 5809 3229 C 5790 3191 5790 3188 5806 3160 C 5824 3131 5870 3108 5940 3095 C 5983 3086 6000 3073 6000 3049 C 6000 3014 5918 3007 5871 3038 C 5842 3057 5790 3056 5790 3036 C 5790 3029 5801 3013 5815 3000 C 5870 2948 6034 2968 6060 3030 C 6089 3100 6054 3143 5944 3170 C 5874 3187 5846 3210 5867 3231 C 5881 3245 5952 3245 5979 3230 C 6003 3218 6050 3227 6050 3244 C 6050 3274 5957 3301 5890 3290 Z" style="fill: rgb(79, 122, 92);"/>
        <path d="M 5667 3273 C 5654 3259 5646 3258 5632 3266 C 5622 3273 5604 3277 5590 3276 C 5558 3275 5554 3252 5558 3098 C 5562 2971 5562 2970 5585 2970 C 5616 2970 5619 2975 5625 3061 C 5635 3205 5636 3208 5688 3222 C 5728 3234 5735 3240 5735 3260 C 5735 3292 5694 3299 5667 3273 Z" style="fill: rgb(79, 122, 92);"/>
        <path d="M 5256 3267 C 5200 3233 5180 3191 5179 3108 C 5178 3046 5190 3016 5229 2983 C 5250 2965 5268 2961 5323 2960 C 5386 2960 5394 2963 5421 2989 C 5437 3005 5450 3023 5450 3028 C 5450 3047 5410 3048 5387 3030 C 5356 3006 5331 3003 5292 3019 C 5263 3031 5259 3037 5262 3064 C 5264 3083 5271 3095 5280 3096 C 5288 3097 5335 3098 5384 3098 L 5473 3100 L 5466 3142 C 5456 3201 5431 3242 5390 3262 C 5350 3282 5284 3285 5256 3267 Z" style="fill: rgb(79, 122, 92);"/>
        <path d="M 4449 3247 C 4447 3241 4446 3171 4448 3093 L 4451 2950 L 4475 2950 C 4489 2950 4504 2958 4510 2969 C 4521 2991 4524 3219 4512 3236 C 4501 3253 4453 3262 4449 3247 Z" style="fill: rgb(79, 122, 92);"/>
        <path d="M 4057 3243 C 4053 3240 4050 3185 4050 3121 C 4050 2976 4064 2945 4132 2938 C 4155 2935 4186 2937 4200 2942 C 4214 2947 4248 2949 4277 2945 C 4341 2937 4340 2934 4337 3105 L 4335 3235 L 4305 3235 C 4276 3235 4275 3234 4273 3180 C 4268 3028 4253 2990 4195 2990 C 4135 2990 4126 3006 4122 3121 C 4119 3201 4115 3228 4102 3238 C 4085 3251 4067 3254 4057 3243 Z" style="fill: rgb(79, 122, 92);"/>
        <path d="M 3105 3234 C 3072 3225 3003 3144 2997 3106 C 2985 3032 3018 2962 3080 2928 C 3149 2890 3257 2926 3295 3000 C 3303 3016 3310 3055 3310 3088 C 3310 3143 3307 3151 3273 3189 C 3238 3227 3230 3232 3180 3235 C 3150 3237 3116 3237 3105 3234 Z M 3215 3160 C 3227 3146 3235 3119 3238 3080 C 3242 3026 3240 3019 3215 2996 C 3166 2951 3102 2969 3074 3036 C 3054 3085 3057 3115 3086 3149 C 3107 3175 3119 3180 3154 3180 C 3184 3180 3202 3174 3215 3160 Z" style="fill: rgb(79, 122, 92);"/>
        <path d="M 2884 3220 C 2864 3212 2849 3180 2820 3084 C 2799 3013 2794 3011 2761 3050 C 2744 3069 2731 3094 2730 3105 C 2730 3116 2723 3138 2715 3154 C 2707 3169 2700 3188 2700 3196 C 2700 3208 2634 3228 2625 3218 C 2620 3213 2711 2979 2730 2948 C 2756 2903 2727 2830 2683 2830 C 2673 2830 2659 2826 2651 2821 C 2627 2806 2657 2780 2697 2780 C 2754 2780 2775 2803 2815 2908 C 2835 2961 2858 3021 2865 3040 C 2883 3085 2924 3214 2922 3220 C 2921 3229 2905 3229 2884 3220 Z" style="fill: rgb(79, 122, 92);"/>
        <path d="M 2000 3209 C 1975 3204 1934 3202 1908 3206 L 1860 3212 L 1861 3103 C 1862 3044 1865 2948 1869 2890 C 1874 2800 1878 2785 1893 2782 C 1923 2776 1940 2799 1940 2844 C 1940 2899 1951 2910 1999 2897 C 2077 2876 2149 2925 2168 3012 C 2179 3058 2178 3072 2161 3119 C 2150 3148 2133 3179 2123 3186 C 2103 3202 2063 3221 2052 3219 C 2048 3218 2025 3214 2000 3209 Z M 2051 3146 C 2066 3143 2082 3129 2088 3115 C 2101 3086 2104 3001 2092 2984 C 2078 2962 2038 2948 2005 2954 C 1965 2962 1942 2994 1933 3055 C 1928 3096 1930 3102 1959 3129 C 1976 3145 1998 3157 2008 3155 C 2017 3153 2037 3149 2051 3146 Z" style="fill: rgb(79, 122, 92);"/>
        <path d="M2331 3209 c-45 -18 -91 -92 -91 -148 0 -88 77 -167 160 -164 109 5 181 93 161 198 -11 56 -25 80 -65 104 -36 23 -121 28 -165 10z m115 -55 c25 -12 35 -24 40 -51 9 -46 -1 -101 -22 -124 -23 -26 -84 -25 -118 2 -23 18 -26 28 -26 80 0 74 13 89 88 108 2 1 19 -6 38 -15z" style="fill: rgb(79, 122, 92);"/>
        <path d="M 1570.701 3200.258 C 1604.596 3210.395 1673.382 3209.382 1701.295 3198.23 C 1740.175 3184.038 1745.524 3141.757 1751.506 3030.245 C 1754.496 2974.488 1759.309 2920.784 1758.389 2907.047 C 1756.52 2879.137 1780.051 2880.927 1721.233 2888.023 C 1684.348 2892.078 1649.456 2890.05 1628.521 2882.954 C 1586.651 2867.748 1525.84 2884.982 1502.911 2917.422 C 1462.038 2977.233 1526.486 3038.113 1619.198 3057.374 C 1690.975 3073.594 1692.323 3097.869 1677.37 3126.254 C 1669.394 3143.488 1657.431 3147.543 1622.54 3147.543 C 1597.617 3147.543 1568.707 3142.474 1558.738 3135.378 C 1538.8 3123.213 1507.896 3130.309 1507.896 3147.543 C 1507.896 3161.735 1543.784 3192.148 1570.701 3200.258 Z" style="fill: rgb(79, 122, 92);"/>
        <ellipse style="stroke: rgb(0, 0, 0); fill: rgb(79, 122, 92);" transform="matrix(0.999974, 0.007184, -0.127735, -1.000943, -244.201628, 129.696488)" cx="1498.896" cy="-2822.408" rx="49.378" ry="39.553"/>
      </g>
      <path d="M 3912.185 3310.746 C 3906.185 3303.746 3897.185 3284.746 3892.185 3267.746 C 3886.185 3249.746 3876.185 3238.746 3868.185 3241.746 C 3828.185 3251.746 3800.185 3248.746 3767.185 3231.746 C 3721.185 3207.746 3703.185 3157.746 3718.185 3090.746 C 3732.185 3028.746 3770.185 2998.746 3823.185 3006.746 C 3846.185 3010.746 3876.185 3014.746 3892.185 3015.746 C 3907.185 3017.746 3923.185 3022.746 3928.185 3028.746 C 3944.185 3045.746 3946.185 3322.746 3930.185 3322.746 C 3925.185 3322.746 3917.185 3316.746 3912.185 3310.746 Z M 3876.185 3182.746 C 3897.185 3149.746 3901.185 3089.746 3884.185 3068.746 C 3862.185 3040.746 3802.185 3041.746 3778.185 3070.746 C 3758.185 3095.746 3759.185 3163.746 3780.185 3188.746 C 3798.185 3210.746 3862.185 3206.746 3876.185 3182.746 Z" style="fill: rgb(79, 122, 92);"/>
      <path d="M 2673.823 3278.314 C 2670.287 3265.539 2669.403 3228.195 2672.939 3194.783 C 2676.474 3160.388 2678.242 3104.373 2677.358 3068.995 C 2674.706 3010.032 2675.59 3003.153 2693.27 2996.274 C 2715.37 2987.429 2862.994 2996.274 2872.718 3008.066 C 2887.746 3023.79 2857.69 3035.583 2793.16 3038.531 C 2756.033 3040.496 2723.325 3044.427 2720.673 3046.392 C 2718.905 3049.341 2716.254 3107.321 2716.254 3176.111 C 2716.254 3293.055 2715.37 3299.934 2698.574 3299.934 C 2688.85 3299.934 2678.242 3290.107 2673.823 3278.314 Z" style="fill: rgb(79, 122, 92);"/>
      <path d="M 3362.421 3238.311 C 3354.557 3227.932 3321.154 3223.685 3320.533 3212.169 C 3319.573 3194.353 3321.061 3203.396 3322.595 3191.953 C 3323.269 3186.925 3350.449 3195.903 3357.077 3193.243 C 3357.435 3169.601 3352.1 3134.736 3354.1 3084.736 C 3357.1 2991.736 3355.1 2998.736 3376.1 2987.736 C 3392.916 2978.681 3413.589 2981.136 3428.231 2992.812 C 3447.546 3008.214 3456.366 3035.573 3431.995 3033.21 C 3421.451 3032.188 3400.713 3029.736 3395.709 3043.583 C 3380.182 3086.546 3392.444 3181.597 3394.145 3194.871 C 3394.79 3199.901 3428.47 3190.969 3435.965 3194.138 C 3435.965 3194.138 3434.211 3213.101 3433.128 3220.521 C 3431.882 3229.06 3434.114 3235.867 3430.592 3233.438 C 3418.881 3233.527 3402.648 3228.771 3398.984 3235.177 C 3394.523 3242.978 3396.513 3258.57 3396.429 3263.96 C 3396.01 3290.937 3377.156 3292.091 3365.068 3278.382 C 3361.354 3274.17 3366.864 3244.175 3362.421 3238.311 Z" style="fill: rgb(79, 122, 92);"/>
      <path d="M 3528.301 3229.956 C 3490.301 3214.956 3470.301 3169.956 3469.301 3101.956 C 3469.301 3046.956 3472.301 3035.956 3493.301 3018.956 C 3532.301 2986.956 3636.301 2997.956 3650.301 3034.956 C 3660.301 3059.956 3646.301 3064.956 3611.301 3048.956 C 3568.301 3028.956 3532.301 3037.956 3523.301 3071.956 C 3514.301 3104.956 3525.301 3109.956 3610.301 3109.956 C 3685.301 3109.956 3692.301 3117.956 3669.301 3173.956 C 3647.301 3226.956 3583.301 3252.956 3528.301 3229.956 Z" style="fill: rgb(79, 122, 92);"/>
      <path d="M 3068.63 3205.018 C 3061.246 3204.875 3006.194 3195.493 3001.536 3236.988 C 3001.521 3237.121 2971.568 3237.974 2962.039 3236.953 L 2962.551 3209.607 L 2959.551 3101.607 C 2956.551 2993.607 2956.551 2993.607 2979.551 2996.607 C 2999.551 2999.607 3002.551 3005.607 3003.551 3044.607 C 3003.551 3069.607 3007.551 3110.607 3011.551 3137.607 C 3018.551 3182.607 3023.502 3183.239 3051.551 3179.9 C 3087.835 3175.581 3061.297 3146.993 3064.094 3010.21 C 3065.094 3003.21 3103.013 3007.969 3114.013 3007.969 C 3132.013 3007.969 3114.178 3006.694 3117.199 3073.573 C 3119.901 3133.384 3110.061 3169.375 3149.288 3174.589 C 3158.208 3175.775 3185.462 3181.472 3188.826 3175.742 C 3207.546 3143.858 3175.325 3001.843 3193.573 3002.062 C 3245.715 3002.687 3210.608 2986.297 3230.608 3005.297 C 3231.21 3005.554 3237.309 3028.155 3232.52 3086.121 C 3225.809 3167.344 3229.051 3149.433 3228.661 3174.928 C 3228.434 3189.79 3233.562 3206.02 3198.63 3207.373 C 3135.8 3209.806 3139.508 3201.343 3110.216 3196.066 C 3095.96 3199.381 3080.355 3205.246 3068.63 3205.018 Z" style="fill: rgb(79, 122, 92);"/>
    </g>
    <g transform="matrix(1, 0, 0, 1, 0, -78.130363)">
      <path style="stroke: rgb(0, 0, 0); fill: rgb(79, 122, 92);" d="M 324.941 532.51 L 324.884 552.538 L 327.166 552.619 L 327.224 532.51 L 324.941 532.51 Z"/>
      <path style="stroke: rgb(0, 0, 0); fill: rgb(22, 1, 1);" d="M 324.827 530.829 C 325.375 531.824 327.757 530.99 327.756 530.963 C 327.736 530.35 327.675 529.003 327.675 529.003 C 327.675 529.003 324.78 528.804 324.773 529.056 C 324.754 529.772 324.585 530.389 324.827 530.829 Z"/>
    </g>
    <g transform="matrix(1, 0, 0, 1, -37.49054, -80.195389)">
      <path style="stroke: rgb(0, 0, 0); fill: rgb(79, 122, 92); fill-rule: evenodd;" d="M 324.941 532.51 L 324.884 552.538 L 327.166 552.619 L 327.224 532.51 L 324.941 532.51 Z"/>
      <path style="stroke: rgb(0, 0, 0); fill: rgb(79, 122, 92); fill-rule: evenodd;" d="M 324.827 530.829 C 325.375 531.824 327.757 530.99 327.756 530.963 C 327.736 530.35 327.675 529.003 327.675 529.003 C 327.675 529.003 324.78 528.804 324.773 529.056 C 324.754 529.772 324.585 530.389 324.827 530.829 Z"/>
    </g>
  </g>
</svg>